<?xml version="1.0" encoding="UTF-8" standalone="no"?>
<!-- Created with Inkscape (http://www.inkscape.org/) -->

<svg
   width="512"
   height="512"
   viewBox="0 0 135.46666 135.46667"
   version="1.1"
   id="svg1"
   xml:space="preserve"
   inkscape:version="1.4.4 (dcaf3e7, 2026-05-05)"
   sodipodi:docname="Github.svg"
   xmlns:inkscape="http://www.inkscape.org/namespaces/inkscape"
   xmlns:sodipodi="http://sodipodi.sourceforge.net/DTD/sodipodi-0.dtd"
   xmlns="http://www.w3.org/2000/svg"
   xmlns:svg="http://www.w3.org/2000/svg"><sodipodi:namedview
     id="namedview1"
     pagecolor="#ffffff"
     bordercolor="#000000"
     borderopacity="0.25"
     inkscape:showpageshadow="2"
     inkscape:pageopacity="0.0"
     inkscape:pagecheckerboard="0"
     inkscape:deskcolor="#d1d1d1"
     inkscape:document-units="mm"
     showgrid="true"
     inkscape:zoom="1.5768098"
     inkscape:cx="199.77045"
     inkscape:cy="250.18871"
     inkscape:window-width="1920"
     inkscape:window-height="1129"
     inkscape:window-x="-8"
     inkscape:window-y="-8"
     inkscape:window-maximized="1"
     inkscape:current-layer="layer1"><inkscape:grid
       id="grid1"
       units="px"
       originx="0"
       originy="0"
       spacingx="2.1166667"
       spacingy="2.1166667"
       empcolor="#0099e5"
       empopacity="0.30196078"
       color="#0099e5"
       opacity="0.14901961"
       empspacing="5"
       enabled="true"
       visible="true" /></sodipodi:namedview><defs
     id="defs1" /><g
     inkscape:label="Camada 1"
     inkscape:groupmode="layer"
     id="layer1"><path
       style="fill:#ff7f2a;stroke-width:0.264583"
       d="m 86.783343,133.35 h 2.116666 l 10.583334,-4.23333 16.933337,-12.7 12.7,-16.933335 4.23333,-14.816667 2.11667,-16.933333 L 131.23334,44.450002 118.53335,23.283334 101.60001,10.583333 84.666674,4.2333335 67.73334,2.1166667 50.800005,4.2333335 33.866669,10.583333 16.933335,23.283334 4.2333338,44.450002 2.1925456e-5,69.635591 2.1166669,84.666668 6.3500007,99.483335 19.050002,116.41667 l 12.7,10.58333 14.816669,6.35 h 2.116667 l 2.116667,-2.11666 v -14.81667 l -2.116667,2.11667 h -8.466667 l -6.350002,-2.11667 -4.233333,-4.23333 -4.233334,-8.46667 -2.116666,-2.11667 -4.233334,-2.116665 -2.116667,-2.116667 2.116667,-2.116667 h 2.116667 l 8.466667,4.233334 4.233333,6.349995 2.116667,2.11667 4.233335,2.11667 h 6.35 L 50.800005,107.95 v -2.11667 l 2.116666,-4.23333 2.116667,-2.116665 -10.583333,-2.116667 -8.466669,-4.233333 -6.35,-6.35 -2.116667,-4.233333 -2.116667,-8.466667 v -12.7 l 2.116667,-8.466666 4.233333,-6.35 -2.116666,-4.233334 v -6.350002 l 2.116666,-6.35 h 4.233334 l 6.350002,2.116667 4.233333,2.116666 4.233334,4.233336 6.35,-2.116669 10.583335,-2.116667 10.583334,2.116667 6.35,2.116669 4.233335,-4.233336 4.233334,-2.116666 6.35,-2.116667 h 4.233337 l 2.11666,6.35 v 6.350002 l -2.11666,4.233334 4.23333,6.35 2.11667,8.466666 v 12.7 l -2.11667,8.466667 -2.11667,4.233333 -6.349997,6.35 -8.466667,4.233333 -10.583336,2.116667 2.116667,2.116665 2.116667,4.23333 v 25.40001 z"
       id="path2" /></g></svg>
