<?xml version="1.0" encoding="UTF-8" standalone="no"?>
<!-- Created with Inkscape (http://www.inkscape.org/) -->

<svg
   width="512"
   height="512"
   viewBox="0 0 135.46666 135.46667"
   version="1.1"
   id="svg1"
   xml:space="preserve"
   inkscape:version="1.4.4 (dcaf3e7, 2026-05-05)"
   sodipodi:docname="Discord.svg"
   xmlns:inkscape="http://www.inkscape.org/namespaces/inkscape"
   xmlns:sodipodi="http://sodipodi.sourceforge.net/DTD/sodipodi-0.dtd"
   xmlns="http://www.w3.org/2000/svg"
   xmlns:svg="http://www.w3.org/2000/svg"><sodipodi:namedview
     id="namedview1"
     pagecolor="#ffffff"
     bordercolor="#000000"
     borderopacity="0.25"
     inkscape:showpageshadow="2"
     inkscape:pageopacity="0.0"
     inkscape:pagecheckerboard="0"
     inkscape:deskcolor="#d1d1d1"
     inkscape:document-units="mm"
     showgrid="true"
     inkscape:zoom="1.5768098"
     inkscape:cx="135.71707"
     inkscape:cy="227.99199"
     inkscape:window-width="1920"
     inkscape:window-height="1129"
     inkscape:window-x="-8"
     inkscape:window-y="-8"
     inkscape:window-maximized="1"
     inkscape:current-layer="layer1"><inkscape:grid
       id="grid1"
       units="px"
       originx="0"
       originy="0"
       spacingx="2.1166666"
       spacingy="2.1166666"
       empcolor="#0099e5"
       empopacity="0.30196078"
       color="#0099e5"
       opacity="0.14901961"
       empspacing="5"
       enabled="true"
       visible="true" /></sodipodi:namedview><defs
     id="defs1" /><g
     inkscape:label="Camada 1"
     inkscape:groupmode="layer"
     id="layer1"><path
       d="M 49.262079,18.088006 18.475484,27.323985 3.0821841,67.346559 0.00352538,98.133156 6.1608443,107.36913 30.790122,116.60511 h 6.157319 l 6.157319,-9.23598 -6.157319,-3.07866 -3.07866,-3.07866 3.07866,-3.078654 21.550617,6.157314 h 18.471958 l 21.550618,-6.157314 3.078656,3.078654 -3.078656,3.07866 -6.157319,3.07866 6.157319,9.23598 h 6.157316 l 24.62927,-9.23598 6.15732,-9.235974 -3.07866,-30.786597 -15.39329,-40.022574 -30.786595,-9.235979 -3.078658,6.157319 -15.3933,-3.07866 -15.393297,3.07866 z M 43.10476,59.649911 h 6.157319 l 6.15732,3.07866 3.078659,6.157319 v 6.15732 l -3.078659,6.157318 -6.15732,3.078661 H 43.10476 l -6.157319,-3.078661 -3.07866,-6.157318 v -6.15732 l 3.07866,-6.157319 z m 43.101235,0 h 6.15732 l 6.157319,3.07866 3.078656,6.157319 v 6.15732 l -3.078656,6.157318 -6.157319,3.078661 h -6.15732 l -6.157319,-3.078661 -3.07866,-6.157318 v -6.15732 l 3.07866,-6.157319 z"
       style="fill:#ff7f2a;stroke-width:0.384832"
       id="path1" /></g></svg>
