<?xml version="1.0" encoding="UTF-8" standalone="no"?>
<!-- Created with Inkscape (http://www.inkscape.org/) -->

<svg
   width="512"
   height="512"
   viewBox="0 0 135.46666 135.46667"
   version="1.1"
   id="svg1"
   xml:space="preserve"
   inkscape:version="1.4.4 (dcaf3e7d9e, 2026-05-05)"
   sodipodi:docname="Me.svg"
   xmlns:inkscape="http://www.inkscape.org/namespaces/inkscape"
   xmlns:sodipodi="http://sodipodi.sourceforge.net/DTD/sodipodi-0.dtd"
   xmlns="http://www.w3.org/2000/svg"
   xmlns:svg="http://www.w3.org/2000/svg"><sodipodi:namedview
     id="namedview1"
     pagecolor="#ffffff"
     bordercolor="#000000"
     borderopacity="0.25"
     inkscape:showpageshadow="2"
     inkscape:pageopacity="0.0"
     inkscape:pagecheckerboard="0"
     inkscape:deskcolor="#d1d1d1"
     inkscape:document-units="mm"
     showgrid="true"
     inkscape:zoom="1.7834877"
     inkscape:cx="126.15731"
     inkscape:cy="250.35217"
     inkscape:window-width="2048"
     inkscape:window-height="1210"
     inkscape:window-x="0"
     inkscape:window-y="0"
     inkscape:window-maximized="1"
     inkscape:current-layer="layer1"><inkscape:grid
       id="grid1"
       units="px"
       originx="0"
       originy="0"
       spacingx="2.1166666"
       spacingy="2.1166666"
       empcolor="#0099e5"
       empopacity="0.30196078"
       color="#0099e5"
       opacity="0.14901961"
       empspacing="5"
       enabled="true"
       visible="true" /></sodipodi:namedview><defs
     id="defs1" /><g
     inkscape:label="Layer 1"
     inkscape:groupmode="layer"
     id="layer1"><path
       d="M 59.266666,12.699997 50.8,16.93333 l -6.35,6.35 -2.116667,10.583333 V 50.799997 L 50.8,65.616663 l 8.466666,6.35 8.466667,2.116667 10.583333,-2.116667 8.466667,-6.35 L 95.25,50.799997 V 33.866663 l -2.116667,-10.583333 -6.35,-6.35 -8.466667,-4.233333 z m -2.116666,19.05 h 4.233333 l 4.233333,4.233333 6.35,2.116667 h 12.7 l 6.35,-2.116667 v 14.816667 l -6.35,10.583333 -6.35,6.35 -10.583333,4.233333 -8.466667,-4.233333 -6.35,-6.35 -6.35,-10.583333 v -12.7 L 50.8,33.866663 Z"
       style="display:inline;fill:#ff7f2a;stroke-width:20.5401"
       id="path10" /><path
       style="display:inline;fill:#ff7f2a;fill-opacity:1;stroke-width:20.5401"
       d="m 48.683332,44.449993 2.116667,4.233334 v 2.116664 l 4.233333,2.116666 h 6.35 l 4.233334,-2.116666 2.116666,-6.349998 h 2.116667 l 2.116666,6.349998 4.233334,2.116666 h 6.35 l 4.233333,-2.116666 v -2.116664 l 2.116667,-4.233334 V 42.333327 L 84.666665,40.21666 h -8.466666 l -6.35,2.116667 h -2.116667 l -6.35,-2.116667 h -8.466666 l -4.233334,2.116667 z"
       id="path4" /><path
       d="m 52.916666,71.966663 -25.4,14.816667 -6.35,21.16667 6.35,6.35 8.466667,4.23333 31.75,4.23333 31.75,-4.23333 L 107.95,114.3 114.3,107.95 107.95,86.78333 82.55,71.966663 71.966666,76.199997 67.733333,86.78333 63.5,76.199997 Z m 0,25.4 h 6.35 v 4.233327 h -6.35 L 50.8,103.71666 l 2.116666,2.11667 h 6.35 v 4.23333 h -6.35 l -4.233333,-2.11666 -2.116667,-4.23334 2.116667,-4.233337 z m 12.7,0 H 69.85 v 4.233327 h 4.233333 v 4.23334 H 69.85 v 4.23333 h -4.233334 v -4.23333 h -4.233333 v -4.23334 h 4.233333 z m 14.816667,0 h 4.233333 v 4.233327 H 88.9 v 4.23334 h -4.233334 v 4.23333 h -4.233333 v -4.23333 H 76.2 v -4.23334 h 4.233333 z"
       style="display:inline;fill:#ff7f2a;stroke-width:20.5401"
       id="path12" /></g></svg>
