<?xml version="1.0" encoding="UTF-8" standalone="no"?>
<!-- Created with Inkscape (http://www.inkscape.org/) -->

<svg
   width="512"
   height="512"
   viewBox="0 0 135.46666 135.46667"
   version="1.1"
   id="svg1"
   xml:space="preserve"
   inkscape:version="1.4.4 (dcaf3e7d9e, 2026-05-05)"
   sodipodi:docname="News.svg"
   xmlns:inkscape="http://www.inkscape.org/namespaces/inkscape"
   xmlns:sodipodi="http://sodipodi.sourceforge.net/DTD/sodipodi-0.dtd"
   xmlns="http://www.w3.org/2000/svg"
   xmlns:svg="http://www.w3.org/2000/svg"><sodipodi:namedview
     id="namedview1"
     pagecolor="#ffffff"
     bordercolor="#000000"
     borderopacity="0.25"
     inkscape:showpageshadow="2"
     inkscape:pageopacity="0.0"
     inkscape:pagecheckerboard="0"
     inkscape:deskcolor="#d1d1d1"
     inkscape:document-units="mm"
     showgrid="true"
     inkscape:zoom="1.2611162"
     inkscape:cx="156.6073"
     inkscape:cy="244.62456"
     inkscape:window-width="2048"
     inkscape:window-height="1210"
     inkscape:window-x="0"
     inkscape:window-y="0"
     inkscape:window-maximized="1"
     inkscape:current-layer="layer1"><inkscape:grid
       id="grid1"
       units="px"
       originx="0"
       originy="0"
       spacingx="2.1166666"
       spacingy="2.1166666"
       empcolor="#0099e5"
       empopacity="0.30196078"
       color="#0099e5"
       opacity="0.14901961"
       empspacing="5"
       enabled="true"
       visible="true" /></sodipodi:namedview><defs
     id="defs1" /><g
     inkscape:label="Layer 1"
     inkscape:groupmode="layer"
     id="layer1"><path
       d="M 114.26641,6.8269735 15.32723,31.561898 20.824052,48.051847 1.5859497,53.548153 23.572205,127.75241 136.25267,81.03123 Z m -2.74815,8.2449745 19.2381,60.462976 -38.642603,15.989722 0.166398,0.499711 -32.979899,13.741793 -0.180867,-0.58859 -8.064107,3.33675 -24.734408,-68.707437 z m -85.197386,41.224874 16.489433,57.714308 -13.74128,2.74815 -16.48995,-54.966153 z"
       style="display:inline;opacity:1;fill:#ff7f2a;stroke-width:26.6694"
       id="path8" /><path
       d="M 92.113757,91.524646 81.286511,59.044975 48.307129,70.038102 59.119389,105.17756 Z"
       style="opacity:1;fill:#ff7f2a;stroke-width:26.6694"
       id="path11" /><path
       d="m 92.113757,91.524646 -32.994368,13.652914 0.180867,0.58859 32.979899,-13.741793 z"
       style="opacity:1;fill:#ff7f2a;stroke-width:26.6694"
       id="path10" /><path
       d="M 114.26641,50.8 86.783333,59.044975 92.280155,78.283077 119.76323,67.28995 Z"
       style="opacity:1;fill:#ff7f2a;stroke-width:26.6694"
       id="path13" /><path
       d="M 108.76959,26.065076 40.062154,42.555025 48.307129,64.54128 114.26641,45.303178 Z"
       style="opacity:1;fill:#ff7f2a;stroke-width:26.6694"
       id="path12" /></g></svg>
