<?xml version="1.0" encoding="UTF-8" standalone="no"?>
<!-- Created with Inkscape (http://www.inkscape.org/) -->

<svg
   width="512"
   height="512"
   viewBox="0 0 135.46666 135.46667"
   version="1.1"
   id="svg1"
   sodipodi:docname="Start.svg"
   inkscape:version="1.4.4 (dcaf3e7d9e, 2026-05-05)"
   xmlns:inkscape="http://www.inkscape.org/namespaces/inkscape"
   xmlns:sodipodi="http://sodipodi.sourceforge.net/DTD/sodipodi-0.dtd"
   xmlns="http://www.w3.org/2000/svg"
   xmlns:svg="http://www.w3.org/2000/svg">
  <sodipodi:namedview
     id="namedview1"
     pagecolor="#ffffff"
     bordercolor="#000000"
     borderopacity="0.25"
     inkscape:showpageshadow="2"
     inkscape:pageopacity="0.0"
     inkscape:pagecheckerboard="0"
     inkscape:deskcolor="#d1d1d1"
     inkscape:document-units="mm"
     showgrid="true"
     inkscape:zoom="1.5768098"
     inkscape:cx="223.86974"
     inkscape:cy="254.62805"
     inkscape:window-width="2048"
     inkscape:window-height="1210"
     inkscape:window-x="0"
     inkscape:window-y="0"
     inkscape:window-maximized="1"
     inkscape:current-layer="layer1">
    <inkscape:grid
       id="grid1"
       units="px"
       originx="0"
       originy="0"
       spacingx="2.1166666"
       spacingy="2.1166666"
       empcolor="#0099e5"
       empopacity="0.30196078"
       color="#0099e5"
       opacity="0.14901961"
       empspacing="5"
       enabled="true"
       visible="true" />
  </sodipodi:namedview>
  <defs
     id="defs1" />
  <g
     inkscape:label="Camada 1"
     inkscape:groupmode="layer"
     id="layer1">
    <path
       d="m 42.333333,0 -19.05,2.1166667 L 10.583333,6.35 6.35,10.583333 2.1166667,23.283333 0,42.333333 v 48.683334 l 2.1166667,21.166663 4.2333333,12.7 4.233333,4.23334 12.7,4.23333 19.05,2.11667 h 50.8 l 19.049997,-2.11667 12.7,-4.23333 4.23334,-4.23334 4.23333,-12.7 2.11667,-19.049997 v -50.8 l -2.11667,-19.05 -4.23333,-12.7 L 124.88333,6.35 112.18333,2.1166667 93.133333,0 Z M 44.45,31.75 l 10.583333,25.4 25.4,2.116667 -19.05,19.05 4.233334,25.400003 L 44.45,91.016667 23.283333,103.71667 27.516667,78.316667 8.2930339,61.274296 33.866667,57.15 Z m 33.866667,0 H 127 v 8.466667 H 107.95 V 105.83333 H 97.366667 V 40.216667 h -19.05 z"
       style="fill:#ff7f2a;stroke-width:0.264583"
       id="path20" />
  </g>
</svg>
